<svg xmlns="http://www.w3.org/2000/svg" width="20" height="11.668" viewBox="0 0 20 11.668">
  <g id="arrow-right-blue" transform="translate(24.499)">
    <path id="Path_315" data-name="Path 315" d="M4.744,10.368a.833.833,0,0,0,0,1.18l4.411,4.409-4.412,4.41a.834.834,0,1,0,1.18,1.18l5-5a.833.833,0,0,0,0-1.18l-5-5a.833.833,0,0,0-1.18,0Z" transform="translate(-15.666 -10.123)" fill="#195b9b" fill-rule="evenodd"/>
    <path id="Path_316" data-name="Path 316" d="M24.791,17.708a.833.833,0,0,0-.833-.833H6.458a.833.833,0,1,0,0,1.667h17.5A.833.833,0,0,0,24.791,17.708Z" transform="translate(-30.124 -11.874)" fill="#195b9b" fill-rule="evenodd"/>
  </g>
</svg>
