<svg xmlns="http://www.w3.org/2000/svg" width="12.609" height="11.031" viewBox="0 0 12.609 11.031">
    <path data-name="Icon awesome-search" d="M12.438 9.537 9.982 7.389a.636.636 0 0 0-.419-.151h-.4a4.118 4.118 0 0 0 1.084-2.757C10.246 2.006 7.953 0 5.123 0S0 2.006 0 4.481s2.293 4.481 5.123 4.481a5.579 5.579 0 0 0 3.153-.948v.351a.486.486 0 0 0 .172.366l2.452 2.148a.65.65 0 0 0 .835 0l.7-.61a.475.475 0 0 0 0-.732zm-7.315-2.3A2.973 2.973 0 0 1 1.97 4.481a2.973 2.973 0 0 1 3.153-2.758 2.973 2.973 0 0 1 3.152 2.758 2.973 2.973 0 0 1-3.152 2.757z" style="fill:#c8c8c8"/>
</svg>
