<svg xmlns="http://www.w3.org/2000/svg" width="36" height="36.458" viewBox="0 0 36 36.458">
  <g id="icon-view" transform="translate(-226 -113.542)">
    <g id="view" transform="translate(232.578 107.917)">
      <path id="Path_310" data-name="Path 310" d="M18.924,16.212A2.712,2.712,0,1,1,16.212,13.5,2.712,2.712,0,0,1,18.924,16.212Z" transform="translate(-4.916 -3.129)" fill="#195b9b"/>
      <path id="Path_311" data-name="Path 311" d="M21.426,12.853A11.316,11.316,0,0,0,11.3,5.625a11.316,11.316,0,0,0-10.13,7.228.678.678,0,0,0,0,.461A11.316,11.316,0,0,0,11.3,20.542a11.316,11.316,0,0,0,10.13-7.228.678.678,0,0,0,0-.461ZM11.3,17.491A4.408,4.408,0,1,1,15.7,13.084,4.408,4.408,0,0,1,11.3,17.491Z" fill="#195b9b"/>
    </g>
    <text id="View-2" data-name="View" transform="translate(244 146)" fill="#195b9b" font-size="16" font-family="Roboto-Regular, Roboto"><tspan x="-17.281" y="0">View</tspan></text>
  </g>
</svg>
