<svg xmlns="http://www.w3.org/2000/svg" width="15.002" height="15.002" viewBox="0 0 15.002 15.002">
  <g id="link" transform="translate(-5.635 -5.635)">
    <path id="Path_312" data-name="Path 312" d="M19.739,13.136l1.288,1.287L23.6,11.85A3.64,3.64,0,0,0,18.452,6.7L15.879,9.275l1.287,1.288,2.573-2.575a1.821,1.821,0,0,1,2.575,2.575Z" transform="translate(-4.029)" fill="#616161"/>
    <path id="Path_313" data-name="Path 313" d="M13.136,19.74l1.287,1.287L11.85,23.6A3.64,3.64,0,0,1,6.7,18.452l2.573-2.573,1.288,1.287L7.988,19.74a1.82,1.82,0,1,0,2.575,2.573l2.573-2.575Z" transform="translate(0 -4.029)" fill="#616161"/>
    <path id="Path_314" data-name="Path 314" d="M18.733,14.871a.911.911,0,1,0-1.288-1.288l-3.86,3.861a.91.91,0,1,0,1.287,1.287l3.86-3.86Z" transform="translate(-3.022 -3.021)" fill="#616161"/>
  </g>
</svg>
